<svg xmlns="http://www.w3.org/2000/svg" viewBox="0 0 400 400" role="img" aria-labelledby="t">
  <title id="t">Museum Mosaic “M” — color logo tuned for dark backgrounds</title>
  <defs>
    <style>
      :root{
        --ink:#06272B;      /* deeper for contrast on dark */
        --teal:#11A5A8;     /* brighter teal */
        --sea:#31B1A4;      /* brighter sea */
        --orange:#FF7A4F;   /* brighter orange */
        --ochre:#FFC06A;    /* brighter ochre */
      }
    </style>
    <clipPath id="clipM">
      <path d="M0,400 L0,0 L100,0 L200,300 L300,0 L400,0 L400,400 L300,400 L300,200 L200,400 L100,200 L100,400 Z"></path>
    </clipPath>
  </defs>
  <g clip-path="url(#clipM)">
    <rect x="0" y="0" width="100" height="100" fill="var(--sea)"></rect>
    <rect x="100" y="0" width="100" height="100" fill="var(--orange)"></rect>
    <rect x="200" y="0" width="100" height="100" fill="var(--ink)"></rect>
    <rect x="300" y="0" width="100" height="100" fill="var(--ochre)"></rect>
    <rect x="0" y="100" width="100" height="100" fill="var(--ink)"></rect>
    <rect x="100" y="100" width="100" height="100" fill="var(--teal)"></rect>
    <rect x="200" y="100" width="100" height="100" fill="var(--ochre)"></rect>
    <rect x="300" y="100" width="100" height="100" fill="var(--sea)"></rect>
    <rect x="0" y="200" width="100" height="100" fill="var(--sea)"></rect>
    <rect x="100" y="200" width="100" height="100" fill="var(--ink)"></rect>
    <rect x="200" y="200" width="100" height="100" fill="var(--teal)"></rect>
    <rect x="300" y="200" width="100" height="100" fill="var(--ink)"></rect>
    <rect x="0" y="300" width="100" height="100" fill="var(--ochre)"></rect>
    <rect x="100" y="300" width="100" height="100" fill="var(--sea)"></rect>
    <rect x="200" y="300" width="100" height="100" fill="var(--orange)"></rect>
    <rect x="300" y="300" width="100" height="100" fill="var(--teal)"></rect>
  </g>
</svg>
