<svg xmlns="http://www.w3.org/2000/svg" viewBox="0 0 640 200" role="img" aria-labelledby="t">
  <title id="t">Museum Ernsthausen — Open Sans (light, trimmed)</title>
  <style>
    .word { fill:#0E3A43; }
    .sep  { stroke:#F4A261; }
    .opensans { font-family:"Open Sans",system-ui,-apple-system,"Segoe UI",Roboto,Helvetica,Arial,sans-serif; font-weight:700; }
  </style>
  <defs><clipPath id="clipM"><path d="M0,400 L0,0 L100,0 L200,300 L300,0 L400,0 L400,400 L300,400 L300,200 L200,400 L100,200 L100,400 Z"></path></clipPath></defs>

  <g transform="translate(20,20) scale(0.4)" clip-path="url(#clipM)">
    <rect x="0" y="0" width="100" height="100" fill="#2A9D8F"></rect><rect x="100" y="0" width="100" height="100" fill="#E76F51"></rect>
    <rect x="200" y="0" width="100" height="100" fill="#0E3A43"></rect><rect x="300" y="0" width="100" height="100" fill="#F4A261"></rect>
    <rect x="0" y="100" width="100" height="100" fill="#0E3A43"></rect><rect x="100" y="100" width="100" height="100" fill="#0F8B8D"></rect>
    <rect x="200" y="100" width="100" height="100" fill="#F4A261"></rect><rect x="300" y="100" width="100" height="100" fill="#2A9D8F"></rect>
    <rect x="0" y="200" width="100" height="100" fill="#2A9D8F"></rect><rect x="100" y="200" width="100" height="100" fill="#0E3A43"></rect>
    <rect x="200" y="200" width="100" height="100" fill="#0F8B8D"></rect><rect x="300" y="200" width="100" height="100" fill="#0E3A43"></rect>
    <rect x="0" y="300" width="100" height="100" fill="#F4A261"></rect><rect x="100" y="300" width="100" height="100" fill="#2A9D8F"></rect>
    <rect x="200" y="300" width="100" height="100" fill="#E76F51"></rect><rect x="300" y="300" width="100" height="100" fill="#0F8B8D"></rect>
  </g>

  <g class="opensans">
    <text class="word" x="220" y="96" font-size="88" textLength="400" lengthAdjust="spacingAndGlyphs">Museum</text>
    <line class="sep" x1="220" y1="106" x2="620" y2="106" stroke-width="4" stroke-linecap="round"></line>
    <text class="word" x="220" y="168" font-size="72" textLength="400" lengthAdjust="spacingAndGlyphs">Ernsthausen</text>
  </g>
</svg>
